#N canvas 400 200 450 300 14;
#X obj 180 50 inlet;
#X obj 240 90 inlet;
#X obj 180 150 f \$1;
#X obj 190 180 - \$2;
#X obj 180 90 t b f;
#X obj 190 210 outlet;
#X connect 0 0 4 0;
#X connect 1 0 2 1;
#X connect 2 0 3 0;
#X connect 3 0 5 0;
#X connect 4 0 2 0;
#X connect 4 1 3 1;
